<?xml version="1.0" encoding="UTF-8"?>
<svg width="24.179mm" height="17.306mm" version="1.1" viewBox="0 0 24.179043 17.305607" xmlns="http://www.w3.org/2000/svg">
 <rect x="-.073082" y="-.087792" width="24.336" height="17.466" fill="none"/>
 <g fill="none" stroke="#000" stroke-width=".26458">
  <path d="m6.5289 3.3192 15.578 1.3736c1.1733 0.10346 2.0346 1.1313 1.9312 2.3046l-0.72623 8.2363c-0.10346 1.1733-1.1313 2.0346-2.3046 1.9312l-15.578-1.3736c-1.1733-0.10346-2.0346-1.1313-1.9312-2.3046l0.72623-8.2363c0.10346-1.1733 1.1313-2.0346 2.3046-1.9312z"/>
  <path d="m2.0988 2.6026 15.595-1.1749c1.1745-0.08849 2.1913 0.78584 2.2798 1.9604l0.62115 8.2449c0.08848 1.1745-0.78584 2.1913-1.9604 2.2798l-15.595 1.1749c-1.1745 0.088485-2.1913-0.78584-2.2798-1.9604l-0.62115-8.2449c-0.088484-1.1745 0.78584-2.1913 1.9604-2.2798z"/>
  <path d="m4.9858 0.17743 15.639-0.04513c1.1779-0.0034 2.1288 0.94211 2.1322 2.12l0.02386 8.2682c0.0034 1.1779-0.94211 2.1288-2.12 2.1322l-15.639 0.04512c-1.1779 0.0034-2.1288-0.94211-2.1322-2.12l-0.02386-8.2682c-0.0034-1.1779 0.94211-2.1288 2.12-2.1322z"/>
 </g>
 <g stroke-width=".26458" aria-label="Flashcards">
  <path d="m8.0745 6.3648h-0.68626l-0.00551 0.01378q-0.17364 0.41617-0.44373 0.71382-0.26734 0.29766-0.60909 0.44924-0.339 0.14883-0.73863 0.14883-0.27285 0-0.48231-0.068902l0.088194-0.21222q0.32246 0.16261 0.62563 0.16261 0.47405 0 0.84887-0.3638 0.1571-0.15434 0.26183-0.33073 0.10749-0.17914 0.23151-0.49885l0.00551-0.01378h-0.27836l0.019292-0.093707h0.29214l0.00551-0.016536 0.019293-0.046853q0.093709-0.26183 0.16812-0.51263 0.074414-0.2508 0.1819-0.68075 0.10197-0.40239 0.14607-0.65043l0.28663-0.12954q-0.022049-0.00551-0.035829-0.00551-0.01378-0.00276-0.033073-0.00551-0.69453-0.07717-1.1906-0.07717-0.31419 0-0.51814 0.041341-0.20119 0.038585-0.33073 0.12127-0.19293 0.12402-0.19293 0.31144 0 0.38861 0.97014 0.44097l-0.18466 0.19568q-0.39412-0.024805-0.6339-0.18741-0.23702-0.16536-0.23702-0.42168 0-0.339 0.42719-0.5457 0.36105-0.17363 1.0638-0.17363 0.18741 0 0.48231 0.022049 0.29766 0.022049 0.6146 0.057878 0.31695 0.033073 0.52641 0.071658l0.049609 0.00827-0.12402 0.24805-0.049609-0.00827q-0.24529-0.044098-0.57326-0.090951l-0.019293-0.00276-0.00276 0.016536q-0.013776 0.068906-0.077166 0.33073-0.060634 0.25907-0.10749 0.42995-0.046853 0.17088-0.099219 0.35553-0.052366 0.1819-0.113 0.3638-0.10473 0.32246-0.19568 0.54019h0.66697z"/>
  <path d="m9.3698 3.7025-0.72485 3.1778-0.024805 0.10749q-0.035829 0.15158-0.035829 0.25632 0 0.085438 0.030317 0.14056 0.033073 0.052366 0.079926 0.052366 0.085438 0 0.27285-0.20395l0.044097 0.038585-0.027561 0.030317q-0.1571 0.18466-0.23151 0.2508-0.074414 0.06339-0.1378 0.06339-0.082682 0-0.14607-0.090951-0.060634-0.093707-0.060634-0.21222 0-0.082682 0.035829-0.26183l0.63665-3.2081z"/>
  <path d="m10.707 5.9569-0.25907 1.0087q-0.04134 0.16536-0.04134 0.25907 0 0.082682 0.03583 0.14332t0.0882 0.060634q0.07993 0 0.26458-0.19568l0.03858 0.038585-0.03032 0.035829q-0.14607 0.16812-0.226 0.23702-0.07717 0.066146-0.13505 0.066146-0.08819 0-0.15434-0.09095-0.06339-0.093707-0.06339-0.21497 0-0.088194 0.06615-0.39963l0.02205-0.10473q-0.10198 0.23702-0.27286 0.45475-0.28663 0.3638-0.54846 0.3638-0.1571 0-0.24805-0.113-0.09095-0.113-0.09095-0.30317 0-0.25907 0.14607-0.54295 0.14883-0.28388 0.36656-0.46578 0.22049-0.18466 0.42719-0.18466 0.21773 0 0.32522 0.15985l0.03032-0.10473zm-0.31695 0.35278q-0.03307-0.10473-0.113-0.16261-0.07717-0.060634-0.17914-0.060634-0.12127 0-0.25632 0.113-0.13505 0.11024-0.24805 0.30868-0.088194 0.1571-0.14883 0.34727-0.057878 0.19017-0.057878 0.31419 0 0.14056 0.052365 0.22049 0.055122 0.079926 0.15434 0.079926 0.12678 0 0.26458-0.11851 0.1378-0.11851 0.27285-0.339 0.08268-0.12678 0.12954-0.25356 0.04685-0.12678 0.10473-0.35278z"/>
  <path d="m10.842 7.4094 0.15434-0.1819q0.12127 0.28663 0.38585 0.28663 0.1378 0 0.23427-0.088194 0.09922-0.09095 0.09922-0.20946 0-0.085438-0.04685-0.14607-0.04685-0.060634-0.22324-0.20395-0.16261-0.13229-0.22049-0.20671-0.05512-0.07717-0.05512-0.17639 0-0.12954 0.07441-0.23978 0.07717-0.11024 0.20395-0.17639 0.12678-0.068902 0.26734-0.068902 0.12402 0 0.2067 0.06339 0.08544 0.060634 0.08544 0.1571 0 0.12678-0.10749 0.17363-0.01654-0.12954-0.09922-0.20119-0.07993-0.074414-0.20671-0.074414-0.113 0-0.19844 0.074414-0.08268 0.071658-0.08268 0.16536 0 0.11576 0.14332 0.22875l0.15985 0.12954q0.23427 0.18466 0.23427 0.37758 0 0.14332-0.08268 0.2701-0.07993 0.12402-0.22049 0.19844-0.1378 0.074414-0.29214 0.074414-0.24529 0-0.41341-0.226z"/>
  <path d="m12.184 7.6133 0.73312-3.7703 0.28939-0.14056-0.76343 3.3569q0.01102-0.019293 0.01102-0.024805l0.06339-0.14332q0.16261-0.36931 0.4079-0.63941 0.23151-0.2508 0.42719-0.2508 0.10473 0 0.16812 0.068902 0.06339 0.066146 0.06339 0.17914 0 0.06339-0.03032 0.17914l-0.02756 0.11576-0.08544 0.33624-0.0248 0.10749q-0.04134 0.16536-0.04134 0.25356 0 0.088194 0.03032 0.14332 0.03032 0.052366 0.07993 0.052366 0.08544 0 0.27285-0.20395l0.04134 0.038585-0.0248 0.030317q-0.1571 0.18466-0.23427 0.2508-0.07441 0.06339-0.13505 0.06339-0.08544 0-0.14607-0.090951-0.06063-0.09095-0.06063-0.21222 0-0.074414 0.03583-0.26183l0.10473-0.58429q0.0248-0.12954 0.0248-0.19293 0-0.057878-0.03032-0.088194-0.03032-0.030317-0.08268-0.030317-0.10198 0-0.23427 0.12127-0.13229 0.11851-0.26734 0.33073-0.13229 0.21222-0.23151 0.45475-0.09922 0.23978-0.14883 0.49334z"/>
  <path d="m15.116 7.1724q-0.16812 0.23702-0.32797 0.34727-0.1571 0.10749-0.35002 0.10749-0.21222 0-0.34727-0.14883-0.13229-0.14883-0.13229-0.38585 0-0.24805 0.12954-0.50436 0.12954-0.25632 0.33073-0.42444 0.20395-0.16812 0.39136-0.16812 0.12678 0 0.20395 0.071658 0.07717 0.068902 0.07717 0.18741 0 0.10749-0.08268 0.20671-0.07993 0.096463-0.17363 0.096463-0.04134 0-0.07441-0.033073 0.17914-0.079926 0.17914-0.29766 0-0.07717-0.04134-0.11851-0.03858-0.044097-0.10473-0.044097-0.10198 0-0.20671 0.082682-0.10198 0.082682-0.19292 0.23151-0.09095 0.14607-0.14332 0.31419-0.04961 0.16536-0.04961 0.33624 0 0.20395 0.09646 0.33073 0.09646 0.12678 0.25356 0.12678 0.13505 0 0.26183-0.085438 0.12678-0.085438 0.26458-0.26183z"/>
  <path d="m16.858 5.9569-0.25907 1.0087q-0.04134 0.16536-0.04134 0.25907 0 0.082682 0.03583 0.14332t0.08819 0.060634q0.07993 0 0.26458-0.19568l0.03858 0.038585-0.03032 0.035829q-0.14607 0.16812-0.226 0.23702-0.07717 0.066146-0.13505 0.066146-0.08819 0-0.15434-0.09095-0.06339-0.093707-0.06339-0.21497 0-0.088194 0.06615-0.39963l0.02205-0.10473q-0.10198 0.23702-0.27285 0.45475-0.28663 0.3638-0.54846 0.3638-0.1571 0-0.24805-0.113-0.09095-0.113-0.09095-0.30317 0-0.25907 0.14607-0.54295 0.14883-0.28388 0.36656-0.46578 0.22049-0.18466 0.42719-0.18466 0.21773 0 0.32522 0.15985l0.03032-0.10473zm-0.31695 0.35278q-0.03307-0.10473-0.113-0.16261-0.07717-0.060634-0.17914-0.060634-0.12127 0-0.25632 0.113-0.13505 0.11024-0.24805 0.30868-0.08819 0.1571-0.14883 0.34727-0.05788 0.19017-0.05788 0.31419 0 0.14056 0.05237 0.22049 0.05512 0.079926 0.15434 0.079926 0.12678 0 0.26458-0.11851t0.27285-0.339q0.08268-0.12678 0.12954-0.25356 0.04685-0.12678 0.10473-0.35278z"/>
  <path d="m17.145 6.803q0.23702-0.28663 0.31695-0.53468-0.22324-0.12402-0.22324-0.35553 0-0.11024 0.05237-0.17914 0.05237-0.068902 0.13229-0.068902 0.08268 0 0.13505 0.07717 0.05236 0.074414 0.05236 0.19568 0 0.085438-0.03032 0.19017 0.07442 0.019293 0.13505 0.019293 0.17088 0 0.28112-0.099219h0.13229l-0.01929 0.038585q-0.19844 0.3638-0.32797 0.71658-0.12678 0.35002-0.12678 0.52365 0 0.06339 0.03307 0.10749 0.03307 0.041341 0.07993 0.041341 0.113 0 0.3638-0.23978l0.0441 0.049609q-0.07717 0.085438-0.23978 0.21222-0.14607 0.11576-0.27285 0.11576-0.10749 0-0.17088-0.071658-0.06063-0.071658-0.06063-0.19568 0-0.20671 0.15985-0.52365 0.05788-0.11851 0.14883-0.2701 0.09095-0.15158 0.22875-0.36105l0.02756-0.038585q-0.09095 0.082682-0.17639 0.11851-0.08268 0.033073-0.19017 0.033073-0.04961 0-0.10473-0.01378-0.08819 0.2701-0.33073 0.55673zm0.37758-0.70004q0.01102-0.068902 0.01102-0.11576 0-0.096463-0.03307-0.15158-0.03032-0.055122-0.07993-0.055122-0.02756 0-0.04961 0.027561-0.01929 0.024805-0.01929 0.06339 0 0.12954 0.17088 0.23151z"/>
  <path d="m20.369 3.7025-0.73036 3.1778q-0.05788 0.25356-0.05788 0.35278 0 0.088195 0.03032 0.14332 0.03307 0.055122 0.08819 0.055122 0.07166 0 0.17363-0.10749l0.07993-0.079926q0.0028-0.00276 0.0055-0.00551 0.0028-0.00276 0.0083-0.00551l0.04134 0.038585-0.02205 0.024805q-0.10473 0.11576-0.10749 0.11851l-0.09095 0.09095q-0.0689 0.068902-0.10197 0.085438-0.03032 0.019293-0.0689 0.019293-0.09095 0-0.15158-0.093707-0.06063-0.093707-0.06063-0.21497 0-0.071658 0.03859-0.26183l0.03032-0.1571q-0.07166 0.17363-0.226 0.37758-0.27836 0.35829-0.54019 0.35829-0.1571 0-0.24805-0.113-0.09095-0.11576-0.09095-0.31144 0-0.27285 0.14332-0.55122 0.14332-0.28112 0.3638-0.46302 0.22324-0.1819 0.44373-0.1819 0.16261 0 0.30317 0.096463l0.44924-2.2517zm-0.7717 2.5301q-0.02481-0.074414-0.10198-0.11851-0.07717-0.046853-0.16536-0.046853-0.12954 0-0.26734 0.11576-0.13505 0.11576-0.25632 0.32797-0.08819 0.1571-0.14607 0.34451-0.05512 0.18466-0.05512 0.33624 0 0.13229 0.05512 0.21222 0.05788 0.079926 0.1571 0.079926 0.11576 0 0.24805-0.11851 0.13505-0.11851 0.2701-0.34175 0.09095-0.15158 0.14332-0.31419 0.06339-0.20946 0.09095-0.33624z"/>
  <path d="m20.014 7.4094 0.15434-0.1819q0.12127 0.28663 0.38585 0.28663 0.1378 0 0.23427-0.088194 0.09922-0.09095 0.09922-0.20946 0-0.085438-0.04685-0.14607-0.04685-0.060634-0.22324-0.20395-0.16261-0.13229-0.22049-0.20671-0.05512-0.07717-0.05512-0.17639 0-0.12954 0.07441-0.23978 0.07717-0.11024 0.20395-0.17639 0.12678-0.068902 0.26734-0.068902 0.12402 0 0.20671 0.06339 0.08544 0.060634 0.08544 0.1571 0 0.12678-0.10749 0.17363-0.01654-0.12954-0.09922-0.20119-0.07993-0.074414-0.20671-0.074414-0.113 0-0.19844 0.074414-0.08268 0.071658-0.08268 0.16536 0 0.11576 0.14332 0.22875l0.15985 0.12954q0.23427 0.18466 0.23427 0.37758 0 0.14332-0.08268 0.2701-0.07993 0.12402-0.22049 0.19844-0.1378 0.074414-0.29214 0.074414-0.24529 0-0.41341-0.226z"/>
 </g>
</svg>
