<?xml version="1.0" encoding="UTF-8"?>
<svg width="210mm" height="297mm" version="1.1" viewBox="0 0 210 297" xmlns="http://www.w3.org/2000/svg">
 <path d="m149.91 29.094q-1.0352 0.27344-2.2656 0.44922-1.2109 0.17578-2.168 0.17578-3.3398 0-5.0781-1.7969t-1.7383-5.7617v-11.602h-2.4805v-3.0859h2.4805v-6.2695h3.6719v6.2695h7.5781v3.0859h-7.5781v9.9414q0 1.7188 0.0781 2.6953 0.0781 0.95703 0.54687 1.7969 0.42969 0.78125 1.1719 1.1523 0.76171 0.35156 2.3047 0.35156 0.89844 0 1.875-0.25391 0.97657-0.27344 1.4062-0.44922h0.19532z"/>
 <path d="m133.8 29.289h-4.6289l-6.1914-8.3789-6.2305 8.3789h-4.2773l8.5156-10.879-8.4375-10.937h4.6289l6.1523 8.2422 6.1719-8.2422h4.2969l-8.5742 10.742z"/>
 <path d="m109.35 18.762h-16.074q0 2.0117 0.60547 3.5156 0.60547 1.4844 1.6602 2.4414 1.0156 0.9375 2.4023 1.4062 1.4062 0.46875 3.0859 0.46875 2.2266 0 4.4726-0.87891 2.2656-0.89844 3.2227-1.7578h0.19531v4.0039q-1.8555 0.78125-3.7891 1.3086t-4.0625 0.52734q-5.4297 0-8.4766-2.9297-3.0469-2.9492-3.0469-8.3594 0-5.3516 2.9102-8.4961 2.9297-3.1445 7.6953-3.1445 4.4141 0 6.7969 2.5781 2.4023 2.5781 2.4023 7.3242zm-3.5742-2.8125q-0.0195-2.8906-1.4648-4.4727-1.4258-1.582-4.3555-1.582-2.9492 0-4.707 1.7383-1.7383 1.7383-1.9727 4.3164z"/>
 <path d="m86.631 29.094q-1.0352 0.27344-2.2656 0.44922-1.2109 0.17578-2.168 0.17578-3.3398 0-5.0781-1.7969t-1.7383-5.7617v-11.602h-2.4805v-3.0859h2.4805v-6.2695h3.6719v6.2695h7.5781v3.0859h-7.5781v9.9414q0 1.7188 0.0781 2.6953 0.0781 0.95703 0.54687 1.7969 0.42969 0.78125 1.1719 1.1523 0.76172 0.35156 2.3047 0.35156 0.89844 0 1.875-0.25391 0.97657-0.27344 1.4062-0.44922h0.19532z"/>
 <path d="m24.715 3.9116h-10.391v25.645h-3.8672v-25.645h-10.391v-3.4375h24.648zm9.5383 14.315h-16.074q0 2.0117 0.60547 3.5156 0.60547 1.4844 1.6602 2.4414 1.0156 0.9375 2.4023 1.4062 1.4062 0.46875 3.0859 0.46875 2.2266 0 4.4727-0.87891 2.2656-0.89844 3.2227-1.7578h0.19531v4.0039q-1.8555 0.78125-3.7891 1.3086t-4.0625 0.52734q-5.4297 0-8.4766-2.9297-3.0469-2.9492-3.0469-8.3594 0-5.3516 2.9102-8.4961 2.9297-3.1445 7.6953-3.1445 4.4141 0 6.7969 2.5781 2.4023 2.5781 2.4023 7.3242zm-3.5742-2.8125q-0.01953-2.8906-1.4648-4.4727-1.4258-1.582-4.3555-1.582-2.9492 0-4.707 1.7383-1.7383 1.7383-1.9727 4.3164zm20.195 7.1484q0 2.9883-2.4805 4.9023-2.4609 1.9141-6.7383 1.9141-2.4219 0-4.4531-0.56641-2.0117-0.58594-3.3789-1.2695v-4.1211h0.19531q1.7383 1.3086 3.8672 2.0898 2.1289 0.76172 4.082 0.76172 2.4219 0 3.7891-0.78125 1.3672-0.78125 1.3672-2.4609 0-1.2891-0.74219-1.9531-0.74219-0.66406-2.8516-1.1328-0.78125-0.17578-2.0508-0.41016-1.25-0.23438-2.2852-0.50781-2.8711-0.76172-4.082-2.2266-1.1914-1.4844-1.1914-3.6328 0-1.3477 0.54688-2.5391 0.56641-1.1914 1.6992-2.1289 1.0938-0.91797 2.7734-1.4453 1.6992-0.54688 3.7891-0.54688 1.9531 0 3.9453 0.48828 2.0117 0.46875 3.3398 1.1523v3.9258h-0.19531q-1.4062-1.0352-3.418-1.7383-2.0117-0.72266-3.9453-0.72266-2.0117 0-3.3984 0.78125-1.3867 0.76172-1.3867 2.2852 0 1.3477 0.83984 2.0312 0.82031 0.68359 2.6562 1.1133 1.0156 0.23438 2.2656 0.46875 1.2695 0.23438 2.1094 0.42969 2.5586 0.58594 3.9453 2.0117 1.3867 1.4453 1.3867 3.8281zm12.509 6.7979q-1.0352 0.27344-2.2656 0.44922-1.2109 0.17578-2.168 0.17578-3.3398 0-5.0781-1.7969-1.7383-1.7969-1.7383-5.7617v-11.602h-2.4805v-3.0859h2.4805v-6.2695h3.6719v6.2695h7.5781v3.0859h-7.5781v9.9414q0 1.7188 0.07813 2.6953 0.07813 0.95703 0.54688 1.7969 0.42969 0.78125 1.1719 1.1523 0.76172 0.35156 2.3047 0.35156 0.89844 0 1.875-0.25391 0.97656-0.27344 1.4062-0.44922h0.19531z"/>
</svg>
