<?xml version="1.0" encoding="UTF-8"?>
<svg width="37.549mm" height="5.8364mm" version="1.1" viewBox="0 0 37.548615 5.8364482" xmlns="http://www.w3.org/2000/svg">
 <g fill="none" stroke="#000">
  <path d="m0 0 0.963 2.646h1.683l0.963-2.646h1.683l0.963 2.646h1.682l0.964-2.646h1.682l0.963 2.646h1.683l0.963-2.646h1.683l0.963 2.646h1.683l0.963-2.646h1.683l0.963 2.646h1.682l0.964-2.646" stroke-width=".26458"/>
  <path d="m-6.4145-24.632h17.64v3.8754h-17.64z" stroke-width=".265"/>
  <path d="m-6.4145-24.632h152.08v39.155h-152.08z" fill="none" stroke="#000" stroke-width=".265"/>
  <path d="m9.6334-6c-1.8008 0.37881-4.0329-0.41433-4.6827-2.1523-0.52385-1.4011 0.56477-2.8589 1.9755-3.3313 2.7795-0.93073 5.7169-0.13787 8.5435 0.39314 1.7495 0.32867 3.6728 0.124 5.1636-0.90956m-5 1c-1.6759 5.7316-2.8362 11.77-5.9935 16.897-1.2954 2.1035-3.9397 3.5977-6.3859 2.9226-1.9416-0.5359-3.3971-2.9719-2.4659-4.7586 0.60355-1.158 2.135-1.312 3.3437-0.82516 0.52198 0.21026 1.0097 0.49363 1.5016 0.76445m3-6h9"/>
  <path d="m20 4c2.5392-3.8606 5.3306-7.6837 6.721-12.132 0.31845-1.0188 0.79259-2.376 0.05359-3.1678-0.67977-0.72833-1.857-0.43816-2.5376 0.28092-1.1828 1.2497-1.4938 3.0064-1.8723 4.6228-1.0338 4.4147-0.44487 9.0573-1.3694 13.493-0.24831 1.1915 1.15 2.244 2.2797 1.7911 2.0468-0.82057 3.3344-2.7293 4.4949-4.5393 0.075211-0.1173 0.1517-0.2338 0.2301-0.34899"/>
  <path d="m37 3-1-2-2-1h-2l-2 1-1 1-1 2v2l1 2 2 1h2l2-1 1-2 2-6-1 5v3l1 1h1l2-1 1-1 2-3"/>
  <path d="m44 4 2-3 1-2v2l2 3 1 2v2l-2 1m-4-1 2 1h4l2-1 1-1 2-3"/>
  <path d="m55 4 2-3 3-5 1-2 1-3v-2l-1-1-2 1-1 2-1 4-1 6-1 8 1-3 1-2 2-3 2-1h2l1 1v2l-1 3v2l1 1h1l2-1 1-1 2-3"/>
  <path d="m77 2v-1l-1-1h-2l-2 1-1 1-1 2v2l1 2 2 1h3l3-2 2-3"/>
  <path d="m90 3-1-2-2-1h-2l-2 1-1 1-1 2v2l1 2 2 1h2l2-1 1-2 2-6-1 5v3l1 1h1l2-1 1-1 2-3"/>
  <path d="m97 4 2-3 1-2v2h3l1 1v2l-1 3v1l1 1h1l2-1 1-1 2-3"/>
  <path d="m119 3-1-2-2-1h-2l-2 1-1 1-1 2v2l1 2 2 1h2l2-1 1-2 6-18m-4 12-1 5v3l1 1h1l2-1 1-1 2-3"/>
  <path d="m126 4 2-3 1-2v2l2 3 1 2v2l-2 1m-4-1 2 1h4l2-1 1-1 2-3"/>
 </g>
</svg>
