<?xml version="1.0" encoding="UTF-8"?>
<svg width="37.549mm" height="5.8364mm" version="1.1" viewBox="0 0 37.548615 5.8364482" xmlns="http://www.w3.org/2000/svg">
 <g fill="none" stroke="#000">
  <path d="m0 0 0.963 2.646h1.683l0.963-2.646h1.683l0.963 2.646h1.682l0.964-2.646h1.682l0.963 2.646h1.683l0.963-2.646h1.683l0.963 2.646h1.683l0.963-2.646h1.683l0.963 2.646h1.682l0.964-2.646" stroke-width=".26458"/>
  <path d="m9.6334-6c-1.8008 0.37881-4.0329-0.41433-4.6827-2.1523-0.52385-1.4011 0.56477-2.8589 1.9755-3.3313 2.7795-0.93073 5.7169-0.13787 8.5435 0.39314 1.7495 0.32867 3.6728 0.124 5.1636-0.90956m-5 1c-1.6759 5.7316-2.8362 11.77-5.9935 16.897-1.2954 2.1035-3.9397 3.5977-6.3859 2.9226-1.9416-0.5359-3.3971-2.9719-2.4659-4.7586 0.60355-1.158 2.135-1.312 3.3437-0.82516 0.52198 0.21026 1.0097 0.49363 1.5016 0.76445m3-6h9"/>
  <path d="m20 4c2.5392-3.8606 5.3306-7.6837 6.721-12.132 0.31845-1.0188 0.79259-2.376 0.05359-3.1678-0.67977-0.72833-1.857-0.43816-2.5376 0.28092-1.1828 1.2497-1.4938 3.0064-1.8723 4.6228-1.0338 4.4147-0.44487 9.0573-1.3694 13.493-0.24831 1.1915 1.15 2.244 2.2797 1.7911 2.0468-0.82057 3.3344-2.7293 4.4949-4.5393 0.075211-0.1173 0.1517-0.2338 0.2301-0.34899"/>
  <path d="m37 3c-0.67265-3.1747-5.0564-4.0007-7.2131-1.7885-3.146 2.2028-1.9297 8.154 2.2729 7.8305 3.7659-0.010355 4.2255-4.1169 5.1964-6.8522 1.1992-3.4045-0.0835 1.9113-0.29275 3.0334-1.2539 4.5911 4.4919 4.3074 5.6927 0.82738 0.46584-0.67175 0.88554-1.3738 1.3438-2.0506"/>
  <path d="m44 4c1.0702-1.2711 1.6786-2.8524 2.6749-4.1741 0.43809-0.59829 0.17604 0.44976 0.3418 0.72879 0.46591 1.9692 2.2664 3.2587 2.8349 5.1858 0.39598 0.83172 0.29976 1.9285-0.44042 2.5419-0.39693 0.35833-0.8986 0.58173-1.4113 0.71765m-4-1c1.3244 0.93678 3.0189 1.1641 4.6011 1.0012 1.6241 0.21803 3.1687-0.681 4.2178-1.8579 0.79188-0.8266 1.3507-1.8298 1.9459-2.7965 0.077648-0.1161 0.1569-0.23112 0.23519-0.34678"/>
  <path d="m55 4c2.6823-4.1984 5.7889-8.3086 7.0025-13.229 0.33523-0.8799 0.08629-2.0983-0.92428-2.3806-1.051-0.36075-2.1732 0.39418-2.4799 1.4111-1.8817 4.2593-2.126 8.9677-2.8863 13.501-0.24574 1.8983-0.46964 3.7994-0.71204 5.6982 0.93669-3.0383 2.156-6.1796 4.6062-8.3286 1.1184-0.80466 2.8915-1.0807 3.9807-0.087529 0.7905 0.89392 0.44558 2.2141 0.14955 3.2394-0.41326 1.3389-1.2185 2.7958-0.56573 4.1871 0.47774 1.1105 2.0251 1.1428 2.93 0.55744 1.7814-1.0379 2.789-2.9083 3.8993-4.5678"/>
  <path d="m77 2c0.37686-2.012-2.3699-2.5464-3.7159-1.6648-2.5984 0.95857-4.1782 4.2576-2.8116 6.7827 0.7528 1.3975 2.4204 2.0122 3.9365 1.8857 1.5868 0.3536 2.7885-0.81744 4.0078-1.6088 1.1539-0.86585 1.7325-2.2596 2.5833-3.3948"/>
  <path d="m90 3c-0.66048-3.3114-5.304-3.9843-7.4028-1.6219-3.0219 2.3538-1.5085 8.1967 2.6518 7.6652 3.4427-0.13562 3.9913-3.818 4.8622-6.4009 0.39242-1.3309 1.2119-3.4745 0.57015-0.78824-1.2412 2.4176-1.3468 8.8967 2.8543 6.4722 1.5881-1.0499 2.4064-2.8124 3.4643-4.3264"/>
  <path d="m97 4c1.0529-1.2421 2.5046-4.2857 2.9905-4.572-0.58686 1.8362 1.1208 1.6116 2.3037 1.572 1.6593-0.25335 2.0334 2.0726 1.6158 3.2723-0.40626 1.4153-1.7801 3.5594-5e-3 4.5886 1.5558 0.46508 3.0347-0.79226 4.0401-1.8391 0.75527-0.95816 1.3483-2.0293 2.0549-3.0218"/>
  <path d="m119 3c-0.52582-1.5777-1.7334-2.8574-3.4736-3.0217-1.59-0.16555-3.1747 0.60378-4.2579 1.7401-1.2155 1.4617-1.8547 3.6901-0.71683 5.383 0.66594 1.5326 2.5757 2.0373 4.1012 1.9038 1.3379-0.24951 2.75-1.0645 3.087-2.4879 1.059-2.5607 1.771-5.2499 2.7066-7.857 1.1845-3.5534 2.369-7.1069 3.5534-10.66m-4 12c-0.39811 2.3158-1.1517 4.6059-1 6.9806-0.10777 0.75646 0.062 1.5333 0.87307 1.8364 1.1789 0.60196 2.3074-0.43735 3.286-0.98951 1.2246-1.0358 1.9001-2.5571 2.8409-3.8274"/>
  <path d="m126 4c1.1231-1.4781 1.9518-3.1488 2.9731-4.6938-0.2445 1.3061 0.44904 2.5455 1.2262 3.5383 0.52868 0.7053 0.9751 1.475 1.3831 2.2564 0.45964 0.90654 0.70085 2.0574 0.16704 2.9848-0.42927 0.55172-1.2126 0.52526-1.7494 0.91426m-4-1c1.0989 0.62951 2.3473 1.2433 3.6507 0.99217 1.0274-0.06748 2.1599 0.25366 3.0889-0.33702 1.6284-0.60793 2.6499-2.1131 3.5259-3.5301 0.23261-0.38309 0.47773-0.75774 0.73449-1.125"/>
 </g>
 <path d="m-6.4145-24.632h17.64v3.8754h-17.64z" stroke-width=".265"/>
 <path d="m-6.4145-24.632h152.08v39.155h-152.08z" fill="none" stroke="#000" stroke-width=".265"/>
</svg>
