<?xml version="1.0" encoding="UTF-8"?>
<svg width="69.246mm" height="10.79mm" version="1.1" viewBox="0 0 69.246421 10.790039" xmlns="http://www.w3.org/2000/svg">
 <g transform="translate(-1.2667 -.32329)">
  <g stroke-width=".26458" aria-label="L!@#$%ipóX">
   <path d="m6.1347 8.9843h-4.8679v-7.6946h1.0232v6.7851h3.8447z"/>
   <path d="m8.7857 1.2896-0.13436 5.5759h-0.8785l-0.14469-5.5759zm-0.051676 7.6946h-1.0542v-1.0904h1.0542z"/>
   <path d="m19.963 5.5581q0 0.7183-0.21187 1.3901-0.2067 0.67179-0.59428 1.2247h-2.2738l-0.13953-0.59945q-0.38241 0.31006-0.7338 0.47542-0.3514 0.16536-0.80615 0.16536-0.86816 0-1.3901-0.65629-0.51676-0.65629-0.51676-1.8345 0-1.1731 0.63562-1.8707t1.5193-0.69763q0.37724 0 0.66663 0.08785 0.28939 0.082682 0.62528 0.25321v-0.24805h0.82166v4.3512h1.2557q0.21704-0.38757 0.32556-0.96635 0.11369-0.58394 0.11369-1.0439 0-0.84749-0.23771-1.54-0.23254-0.69246-0.6873-1.1886-0.45475-0.49609-1.1265-0.75964-0.67179-0.26872-1.5245-0.26872-0.82682 0-1.5141 0.29972-0.68213 0.29972-1.1731 0.80615-0.49609 0.50643-0.78031 1.2144-0.27905 0.7028-0.27905 1.4986 0 0.85266 0.26872 1.5606 0.26872 0.7028 0.75964 1.2041 0.5116 0.52193 1.1989 0.78548 0.6873 0.26872 1.4986 0.26872 0.44442 0 0.91467-0.056844 0.47542-0.056844 0.90951-0.18087v0.73381q-0.50126 0.10852-0.93534 0.14469-0.43408 0.04134-0.894 0.04134-0.96118 0-1.7828-0.33073-0.82166-0.32556-1.4108-0.91467-0.59428-0.59428-0.92501-1.4263-0.33073-0.83199-0.33073-1.8397 0-0.95601 0.34623-1.7777 0.34623-0.82682 0.94568-1.4314 0.59945-0.60461 1.4211-0.95085t1.757-0.34623q1.0129 0 1.8087 0.32039t1.3436 0.89917 0.83716 1.3953q0.29456 0.81132 0.29456 1.8087zm-3.2298 1.3177v-2.6768q-0.32556-0.14986-0.58394-0.21187-0.25838-0.067179-0.55294-0.067179-0.66663 0-1.0439 0.46509t-0.37724 1.3229q0 0.84233 0.29972 1.2764 0.29972 0.42891 0.93534 0.42891 0.34623 0 0.69246-0.1602 0.34623-0.1602 0.63045-0.37724z"/>
   <path d="m28.536 4.168h-1.7208l-0.47542 1.943h1.5916v0.69763h-1.7725l-0.53744 2.1756h-0.66663l0.53744-2.1756h-1.3953l-0.53744 2.1756h-0.66663l0.53744-2.1756h-1.54v-0.69763h1.7208l0.47542-1.943h-1.5916v-0.69763h1.7725l0.5426-2.1807h0.66663l-0.5426 2.1807h1.3953l0.5426-2.1807h0.66663l-0.5426 2.1807h1.54zm-2.3719-0.010335h-1.4159l-0.48576 1.9637h1.4159z"/>
   <path d="m35.539 7.0206q0 0.80098-0.62528 1.3333-0.62528 0.5271-1.6381 0.62528v1.8707h-0.60978v-1.8448q-0.68213-0.0051676-1.2816-0.12919-0.59945-0.12919-1.0387-0.33073v-1.0232h0.08268q0.09819 0.072347 0.3514 0.21187 0.25321 0.13436 0.49093 0.22221 0.26872 0.098185 0.62528 0.18604 0.36174 0.082682 0.76998 0.098185v-2.2376q-0.2067-0.041341-0.3824-0.077515-0.1757-0.041341-0.32556-0.082682-0.84233-0.21187-1.2092-0.63562-0.3669-0.42891-0.3669-1.0542 0-0.76481 0.59945-1.2919 0.60461-0.5271 1.6847-0.61495v-1.4056h0.60978v1.3953q0.52193 0.010335 1.0697 0.12402 0.54777 0.11369 0.91984 0.26355v1.0129h-0.072345q-0.38757-0.23771-0.81132-0.41858-0.41858-0.18604-1.1059-0.23254v2.2273q0.15503 0.025838 0.3359 0.072347 0.18087 0.041341 0.31523 0.067179 0.76998 0.16536 1.1886 0.56844 0.42375 0.40308 0.42375 1.1007zm-2.8732-1.8965v-2.1342q-0.55294 0.041341-0.93018 0.30489-0.37724 0.25838-0.37724 0.72347 0 0.47026 0.27905 0.70797 0.27905 0.23771 1.0284 0.39791zm1.8965 2.0309q0-0.48576-0.30489-0.70797-0.29972-0.22738-0.98185-0.35657v2.1394q0.62012-0.062012 0.95085-0.31523 0.3359-0.25321 0.3359-0.75964z"/>
   <path d="m40.851 3.4239q0 1.1576-0.49093 1.7208-0.48576 0.56327-1.4056 0.56327-0.94051 0-1.4211-0.56327t-0.48059-1.7157q0-1.1576 0.49093-1.7208t1.4108-0.56327q0.93534 0 1.4159 0.56844 0.48059 0.56844 0.48059 1.7105zm3.5708-2.1342-4.0308 7.6946h-0.85266l4.0308-7.6946zm2.4805 5.5604q0 1.1576-0.49093 1.7208t-1.4108 0.56327q-0.93534 0-1.4159-0.56844-0.48059-0.56844-0.48059-1.7105 0-1.1576 0.48576-1.7208 0.49093-0.56327 1.4108-0.56327 0.94051 0 1.4211 0.56327t0.48059 1.7157zm-6.9712-3.4261q0-0.88883-0.23254-1.2402-0.22738-0.3514-0.74414-0.3514-0.5271 0-0.75448 0.3514-0.22738 0.3514-0.22738 1.2454 0 0.894 0.22738 1.2454 0.22738 0.34623 0.75448 0.34623 0.51676 0 0.74414-0.34623 0.23254-0.3514 0.23254-1.2506zm6.0513 3.4261q0-0.88883-0.23254-1.2402-0.22738-0.3514-0.74414-0.3514-0.5271 0-0.75448 0.3514-0.22738 0.3514-0.22738 1.2454 0 0.894 0.22738 1.2454 0.22738 0.34623 0.75448 0.34623 0.51676 0 0.74414-0.34623 0.23254-0.3514 0.23254-1.2506z"/>
   <path d="m49.672 2.2457h-1.0955v-1.0077h1.0955zm-0.06201 6.7386h-0.97152v-5.7723h0.97152z"/>
   <path d="m56.623 6.0284q0 0.7028-0.20154 1.2867-0.20154 0.57878-0.56844 0.98185-0.34106 0.38241-0.80615 0.59428-0.45992 0.20671-0.97668 0.20671-0.44958 0-0.81649-0.098185-0.36174-0.098185-0.73897-0.30489v2.4185h-0.97152v-7.9013h0.97152v0.60461q0.38757-0.32556 0.86816-0.5426 0.48576-0.22221 1.0335-0.22221 1.0439 0 1.6226 0.79065 0.58394 0.78548 0.58394 2.1859zm-1.0025 0.025838q0-1.0439-0.35657-1.5606-0.35657-0.51676-1.0955-0.51676-0.41858 0-0.84233 0.18087-0.42375 0.18087-0.81132 0.47542v3.2711q0.41341 0.18604 0.70797 0.25321 0.29972 0.067179 0.67696 0.067179 0.81132 0 1.2661-0.54777 0.45475-0.54777 0.45475-1.6226z"/>
   <path d="m63.056 6.1007q0 1.4108-0.72347 2.2273t-1.9379 0.81649q-1.2247 0-1.9482-0.81649-0.7183-0.81649-0.7183-2.2273 0-1.4108 0.7183-2.2273 0.72347-0.82166 1.9482-0.82166 1.2144 0 1.9379 0.82166 0.72347 0.81649 0.72347 2.2273zm-1.0025 0q0-1.1214-0.43925-1.664-0.43925-0.54777-1.2196-0.54777-0.79065 0-1.2299 0.54777-0.43408 0.5426-0.43408 1.664 0 1.0852 0.43925 1.6485 0.43925 0.55811 1.2247 0.55811 0.77515 0 1.2144-0.55294 0.44442-0.55811 0.44442-1.6536zm-0.051676-5.7774-1.4108 1.9327h-0.76998l0.92501-1.9327z"/>
   <path d="m70.513 1.2896-2.6562 3.8034 2.651 3.8912h-1.1834l-2.0981-3.1678-2.1497 3.1678h-1.1162l2.682-3.8447-2.62-3.8499h1.1782l2.0722 3.1264 2.1187-3.1264z"/>
  </g>
 </g>
</svg>
